<svg width="523" height="201" viewBox="0 0 523 201" fill="none" xmlns="http://www.w3.org/2000/svg">
<path d="M172.01 100.38L161.06 131.25H151.65L140.7 100.38H148.7L156.35 123.69L164.05 100.38H172.01Z" fill="#030347"/>
<path d="M182.66 100.38V131.25H175.14V100.38H182.66Z" fill="#030347"/>
<path d="M188.81 107.62C190.13 105.23 191.97 103.37 194.33 102.03C196.69 100.7 199.37 100.03 202.36 100.03C206.03 100.03 209.16 101 211.77 102.93C214.38 104.87 216.12 107.5 217 110.85H208.73C208.11 109.56 207.24 108.58 206.11 107.9C204.98 107.23 203.7 106.89 202.26 106.89C199.94 106.89 198.07 107.7 196.63 109.31C195.19 110.92 194.48 113.08 194.48 115.78C194.48 118.48 195.2 120.63 196.63 122.24C198.07 123.85 199.94 124.66 202.26 124.66C203.7 124.66 204.98 124.32 206.11 123.65C207.24 122.98 208.11 121.99 208.73 120.7H217C216.12 124.04 214.38 126.67 211.77 128.59C209.16 130.51 206.02 131.47 202.36 131.47C199.37 131.47 196.69 130.8 194.33 129.47C191.97 128.14 190.13 126.28 188.81 123.91C187.49 121.53 186.83 118.82 186.83 115.77C186.83 112.72 187.49 110 188.81 107.61V107.62Z" fill="#030347"/>
<path d="M229.14 106.41V112.66H239.21V118.47H229.14V125.24H240.53V131.27H221.62V100.4H240.53V106.43H229.14V106.41Z" fill="#030347"/>
<path d="M273.03 131.26H265.51L252.93 112.22V131.26H245.41V100.39H252.93L265.51 119.52V100.39H273.03V131.26Z" fill="#030347"/>
<path d="M300.7 100.38V106.41H292.52V131.26H285V106.41H276.82V100.38H300.7Z" fill="#030347"/>
<path d="M312 106.41V112.66H322.07V118.47H312V125.24H323.39V131.27H304.48V100.4H323.39V106.43H312V106.41Z" fill="#030347"/>
<path d="M345.11 125.45H354.96V131.26H337.59V100.39H345.11V125.46V125.45Z" fill="#030347"/>
<path d="M365.19 129.54C362.77 128.19 360.85 126.31 359.43 123.89C358.01 121.47 357.3 118.75 357.3 115.73C357.3 112.71 358.01 110 359.43 107.59C360.85 105.19 362.77 103.31 365.19 101.96C367.61 100.61 370.27 99.9401 373.17 99.9401C376.07 99.9401 378.73 100.61 381.15 101.96C383.57 103.31 385.47 105.19 386.87 107.59C388.26 109.99 388.96 112.71 388.96 115.73C388.96 118.75 388.26 121.47 386.85 123.89C385.44 126.31 383.54 128.19 381.13 129.54C378.72 130.89 376.07 131.56 373.17 131.56C370.27 131.56 367.61 130.89 365.19 129.54ZM379.09 122.24C380.57 120.6 381.31 118.43 381.31 115.73C381.31 113.03 380.57 110.83 379.09 109.2C377.61 107.57 375.64 106.76 373.17 106.76C370.7 106.76 368.69 107.57 367.21 109.18C365.73 110.79 364.99 112.98 364.99 115.73C364.99 118.48 365.73 120.63 367.21 122.26C368.69 123.89 370.68 124.7 373.17 124.7C375.66 124.7 377.6 123.88 379.09 122.24ZM378.28 94.1801L367.68 98.6201V93.4301L378.28 88.3301V94.1801Z" fill="#030347"/>
<path d="M415.44 115.23C414.62 116.71 413.36 117.91 411.66 118.81C409.96 119.72 407.85 120.17 405.33 120.17H400.67V131.25H393.15V100.38H405.33C407.79 100.38 409.87 100.81 411.58 101.66C413.28 102.51 414.56 103.68 415.41 105.18C416.26 106.68 416.69 108.39 416.69 110.33C416.69 112.12 416.28 113.75 415.46 115.23H415.44ZM407.96 113.18C408.66 112.51 409.02 111.55 409.02 110.32C409.02 109.09 408.67 108.14 407.96 107.46C407.26 106.79 406.19 106.45 404.75 106.45H400.66V114.19H404.75C406.19 114.19 407.26 113.85 407.96 113.18Z" fill="#030347"/>
<path d="M428.1 106.41V112.66H438.17V118.47H428.1V125.24H439.49V131.27H420.58V100.4H439.49V106.43H428.1V106.41Z" fill="#030347"/>
<path d="M452.38 125.1H465.66V131.26H443.85V125.54L457.04 106.54H443.85V100.38H465.66V106.1L452.38 125.1Z" fill="#030347"/>
<path d="M144.46 71.12V78.86H152.9V81.35H144.46V89.33H153.9V91.82H141.44V68.63H153.9V71.12H144.46Z" fill="#030347"/>
<path d="M161.72 91.25C160.51 90.71 159.56 89.95 158.88 88.99C158.19 88.03 157.84 86.91 157.82 85.65H161.04C161.15 86.74 161.6 87.65 162.39 88.39C163.18 89.13 164.32 89.5 165.83 89.5C167.34 89.5 168.41 89.14 169.24 88.42C170.07 87.7 170.49 86.78 170.49 85.64C170.49 84.75 170.25 84.03 169.76 83.48C169.27 82.93 168.66 82.51 167.93 82.22C167.2 81.93 166.21 81.62 164.97 81.29C163.44 80.89 162.22 80.49 161.3 80.09C160.38 79.69 159.59 79.06 158.94 78.21C158.29 77.36 157.96 76.21 157.96 74.77C157.96 73.51 158.28 72.39 158.92 71.41C159.56 70.44 160.47 69.68 161.63 69.15C162.79 68.62 164.13 68.35 165.63 68.35C167.8 68.35 169.58 68.89 170.96 69.98C172.34 71.07 173.13 72.51 173.3 74.3H169.98C169.87 73.41 169.4 72.63 168.58 71.96C167.76 71.28 166.67 70.95 165.32 70.95C164.06 70.95 163.03 71.28 162.23 71.93C161.43 72.58 161.03 73.5 161.03 74.67C161.03 75.51 161.27 76.2 161.74 76.73C162.22 77.26 162.8 77.67 163.5 77.94C164.2 78.22 165.18 78.53 166.44 78.89C167.97 79.31 169.2 79.73 170.13 80.14C171.06 80.55 171.86 81.18 172.52 82.03C173.18 82.88 173.52 84.04 173.52 85.5C173.52 86.63 173.22 87.69 172.62 88.69C172.02 89.69 171.14 90.5 169.96 91.12C168.79 91.74 167.4 92.05 165.81 92.05C164.22 92.05 162.91 91.78 161.71 91.24L161.72 91.25Z" fill="#030347"/>
<path d="M192.25 68.66V71.12H185.94V91.83H182.92V71.12H176.57V68.66H192.26H192.25Z" fill="#030347"/>
<path d="M198.93 68.66V83.32C198.93 85.38 199.43 86.91 200.44 87.91C201.45 88.91 202.85 89.41 204.64 89.41C206.43 89.41 207.8 88.91 208.81 87.91C209.82 86.91 210.32 85.38 210.32 83.32V68.66H213.34V83.28C213.34 85.21 212.95 86.83 212.18 88.15C211.4 89.47 210.36 90.45 209.04 91.09C207.72 91.73 206.24 92.05 204.6 92.05C202.96 92.05 201.48 91.73 200.16 91.09C198.84 90.45 197.8 89.47 197.04 88.15C196.28 86.83 195.89 85.21 195.89 83.28V68.66H198.91H198.93Z" fill="#030347"/>
<path d="M232.18 70.08C234.03 71.02 235.45 72.37 236.43 74.12C237.42 75.87 237.91 77.93 237.91 80.3C237.91 82.67 237.42 84.73 236.43 86.47C235.44 88.21 234.03 89.54 232.18 90.46C230.33 91.38 228.14 91.84 225.62 91.84H218.41V68.66H225.62C228.15 68.66 230.33 69.13 232.18 70.07V70.08ZM232.46 86.96C234.03 85.38 234.82 83.15 234.82 80.3C234.82 77.45 234.03 75.17 232.44 73.55C230.86 71.93 228.58 71.12 225.61 71.12H221.42V89.34H225.61C228.6 89.34 230.88 88.55 232.46 86.96Z" fill="#030347"/>
<path d="M244.93 68.66V91.83H241.91V68.66H244.93Z" fill="#030347"/>
<path d="M254.7 90.55C252.93 89.54 251.53 88.13 250.5 86.33C249.47 84.52 248.95 82.49 248.95 80.23C248.95 77.97 249.47 75.94 250.5 74.13C251.53 72.32 252.93 70.92 254.7 69.91C256.47 68.9 258.43 68.4 260.58 68.4C262.73 68.4 264.72 68.9 266.5 69.91C268.27 70.92 269.67 72.32 270.69 74.11C271.71 75.9 272.22 77.94 272.22 80.23C272.22 82.52 271.71 84.55 270.69 86.35C269.67 88.15 268.27 89.55 266.5 90.56C264.73 91.57 262.75 92.07 260.58 92.07C258.41 92.07 256.47 91.57 254.7 90.56V90.55ZM264.95 88.31C266.25 87.56 267.26 86.48 268.01 85.09C268.75 83.69 269.12 82.08 269.12 80.24C269.12 78.4 268.75 76.76 268.01 75.37C267.27 73.99 266.25 72.92 264.97 72.16C263.68 71.41 262.22 71.03 260.58 71.03C258.94 71.03 257.48 71.41 256.19 72.16C254.9 72.91 253.89 73.98 253.15 75.37C252.41 76.75 252.04 78.38 252.04 80.24C252.04 82.1 252.41 83.7 253.15 85.09C253.89 86.49 254.91 87.56 256.21 88.31C257.51 89.06 258.96 89.44 260.58 89.44C262.2 89.44 263.65 89.06 264.95 88.31Z" fill="#030347"/>
<path d="M72.85 138.36L58 143.12V70.56L72.85 65.8V138.36Z" fill="#0404E2"/>
<path d="M82.26 79.45L97.11 74.71V58L82.26 62.76V79.45Z" fill="#0404E2"/>
<path d="M97.11 58V74.71L111.95 79.45V62.76L97.11 58Z" fill="#0404B5"/>
<path d="M82.26 135.37L97.11 130.62V113.91L82.26 118.67V135.37Z" fill="#0404E2"/>
<path d="M97.11 113.91V130.62L111.95 135.37V118.67L97.11 113.91Z" fill="#0404B5"/>
<path d="M82.26 107.38L97.11 102.64V85.9301L82.26 90.6801V107.38Z" fill="#0404E2"/>
<path d="M97.11 85.9401V102.64L111.95 107.39V90.6901L97.11 85.9401Z" fill="#0404B5"/>
</svg>
