<svg width="19" height="19" viewBox="0 0 19 19" fill="currentColor" xmlns="http://www.w3.org/2000/svg">
<path d="M2.97851 0C3.38685 0 3.7952 0 4.20354 0.0719697C4.94817 0.191919 5.47661 0.623737 5.76485 1.29545C6.07712 2.03914 6.36536 2.75884 6.6536 3.52652C7.03793 4.58207 6.62958 5.63763 5.62073 6.1654C5.23641 6.35732 5.23641 6.35732 5.35651 6.78914C6.46144 10.3396 8.81542 12.6427 12.3944 13.6742C12.5866 13.7222 12.6587 13.6742 12.7547 13.5063C13.091 12.7626 13.6675 12.2828 14.4842 12.2109C14.8205 12.1869 15.2048 12.2348 15.5171 12.3548C16.2137 12.5947 16.9102 12.9066 17.6068 13.1705C18.4716 13.5303 18.976 14.25 18.976 15.2096C18.976 15.7374 18.976 16.2891 18.976 16.8169C18.976 18.0884 18.0392 19 16.7901 18.976C12.5386 18.928 8.81542 17.5126 5.64475 14.7058C2.52212 11.923 0.696587 8.44444 0.144121 4.2702C0.0480404 3.5745 0 2.87879 0 2.18308C0 0.935606 0.912768 0.0239899 2.1378 0C2.42604 0 2.69027 0 2.97851 0Z" fill="currentColor"/>
</svg>