<svg width="21" height="21" viewBox="0 0 21 21" fill="none" xmlns="http://www.w3.org/2000/svg">
<path d="M16.8047 0C18.8324 1.311e-05 20.6267 1.49337 20.9297 3.5C21.0462 4.24667 21 5.01711 21 5.78711V16.9863C21 18.083 20.5337 19.0171 19.7412 19.7871C18.9023 20.6035 17.8769 20.9999 16.7119 21H4.24219C2.23775 21 0.512307 19.6232 0.0927734 17.6865C0.0229156 17.3601 1.74119e-05 17.0335 0 16.707V4.29297C0.000158208 2.14648 1.39867 0.466957 3.51953 0.0703125C3.72929 0.000316345 3.96225 0 4.19531 0H16.8047ZM10.5352 2.12305C5.82705 2.12305 2.12122 5.85688 2.14453 10.5469C2.16795 15.1901 5.87374 18.9003 10.5352 18.877C15.193 18.8768 18.8492 15.149 18.9014 10.5107C18.8715 5.85002 15.1924 2.12315 10.5352 2.12305ZM9.62598 5.97363C9.62598 5.32032 10.1849 4.90028 10.7676 5.08691C11.1405 5.20358 11.374 5.52999 11.374 5.90332V9.12305C11.374 9.40305 11.607 9.61328 11.8867 9.61328H16.5713C16.9442 9.61328 17.2236 9.77685 17.3867 10.1035C17.5498 10.4301 17.5038 10.7337 17.3174 11.0137C17.1542 11.2468 16.8976 11.3633 16.5947 11.3633H11.8398C11.7468 11.3633 11.6305 11.4097 11.5605 11.4795C11.0012 12.0628 10.069 12.0862 9.48633 11.5264C8.90364 10.943 8.90364 10.0335 9.48633 9.4502C9.55622 9.38017 9.62598 9.23978 9.62598 9.14648V5.97363Z" fill="#EAEAEA"/>
</svg>
