<svg width="21" height="20" viewBox="0 0 21 20" fill="currentColor" xmlns="http://www.w3.org/2000/svg">
<path d="M10.5 0C16.2992 0 21 4.477 21 9.99999C21 15.523 16.2992 20 10.5 20C8.6444 20.003 6.82142 19.5353 5.21851 18.645L0.00421623 20L1.42382 15.032C0.488222 13.5049 -0.00323571 11.768 1.60321e-05 9.99999C1.60321e-05 4.477 4.70086 0 10.5 0ZM6.92161 5.3L6.71161 5.308C6.57584 5.31691 6.44318 5.35087 6.32101 5.408C6.20717 5.46951 6.1032 5.54629 6.01231 5.636C5.88631 5.749 5.81491 5.847 5.73826 5.942C5.34989 6.4229 5.14078 7.01331 5.14396 7.61999C5.14606 8.10999 5.28046 8.58699 5.49046 9.03299C5.91991 9.93499 6.62656 10.89 7.55896 11.775C7.78366 11.988 8.00416 12.202 8.24146 12.401C9.40006 13.3724 10.7807 14.073 12.2735 14.447L12.8699 14.534C13.0641 14.544 13.2584 14.53 13.4537 14.521C13.7594 14.5056 14.0579 14.4268 14.3283 14.29C14.4657 14.2223 14.5999 14.1489 14.7305 14.07C14.7305 14.07 14.7749 14.0413 14.8617 13.98C15.0035 13.88 15.0906 13.809 15.2082 13.692C15.2964 13.6053 15.3699 13.5047 15.4287 13.39C15.5106 13.227 15.5925 12.916 15.6261 12.657C15.6513 12.459 15.644 12.351 15.6408 12.284C15.6366 12.177 15.5432 12.066 15.4413 12.019L14.8302 11.758C14.8302 11.758 13.9167 11.379 13.3581 11.137C13.2996 11.1127 13.237 11.0989 13.1733 11.096C13.1015 11.0888 13.0288 11.0965 12.9604 11.1184C12.8919 11.1403 12.8291 11.176 12.7764 11.223C12.7712 11.221 12.7008 11.278 11.9417 12.154C11.8981 12.2098 11.8381 12.2519 11.7693 12.275C11.7004 12.2982 11.6259 12.3013 11.5553 12.284C11.4868 12.2666 11.4198 12.2446 11.3547 12.218C11.2245 12.166 11.1794 12.146 11.0901 12.11C10.4873 11.8599 9.92927 11.5215 9.43636 11.107C9.30406 10.997 9.18121 10.877 9.05521 10.761C8.64215 10.3842 8.28215 9.95798 7.98421 9.49299L7.92226 9.39799C7.87844 9.33379 7.8425 9.26501 7.81516 9.19299C7.77526 9.04599 7.87921 8.92799 7.87921 8.92799C7.87921 8.92799 8.13436 8.66199 8.25301 8.51799C8.36851 8.37799 8.46616 8.24199 8.52916 8.14499C8.65306 7.95499 8.69191 7.75999 8.62681 7.60899C8.33281 6.92499 8.02901 6.24466 7.71541 5.568C7.65346 5.434 7.46971 5.338 7.30276 5.319C7.24606 5.31233 7.18936 5.307 7.13266 5.303C6.99168 5.29529 6.85031 5.29663 6.70951 5.307L6.92161 5.3Z" fill="currentColor"/>
</svg>
