<svg width="17" height="23" viewBox="0 0 17 23" fill="currentColor" xmlns="http://www.w3.org/2000/svg">
<path d="M8.32512 23C8.12512 22.853 7.90012 22.7061 7.75012 22.5101C5.80012 20.2812 4.00012 17.9297 2.50012 15.3578C1.62512 13.8637 0.875124 12.3451 0.400124 10.6795C-0.349876 8.18105 0.000124307 5.82961 1.45012 3.69862C2.85012 1.64111 4.82512 0.440898 7.32512 0.0979804C9.77512 -0.244938 11.9751 0.367416 13.8751 1.88605C15.5501 3.23323 16.5501 4.97231 16.9001 7.07881C17.1751 8.71992 16.8501 10.2875 16.2751 11.8062C15.5001 13.8392 14.4001 15.7252 13.1501 17.5378C11.9751 19.2769 10.6751 20.918 9.27512 22.5101C9.10012 22.7061 8.87512 22.8285 8.70012 23H8.32512ZM8.47512 12.5165C10.8001 12.5655 12.7251 10.6795 12.7751 8.377C12.8251 6.07455 10.9251 4.16401 8.55012 4.13951C6.22512 4.09053 4.27512 5.97657 4.25012 8.27902C4.22512 10.5815 6.10012 12.4675 8.50012 12.5165H8.47512Z" fill="currentColor"/>
</svg>
